<?xml version="1.0" encoding="utf-8"?>
<!-- Generator: Adobe Illustrator 26.5.0, SVG Export Plug-In . SVG Version: 6.00 Build 0)  -->
<svg version="1.1" id="Layer_1" xmlns="http://www.w3.org/2000/svg" xmlns:xlink="http://www.w3.org/1999/xlink" x="0px" y="0px"
	 viewBox="0 0 1115 300" style="enable-background:new 0 0 1115 300;" xml:space="preserve">
<g>
	<path d="M293.5,59.2v179.5h-36.8V59.2H293.5z"/>
	<path d="M443.9,117.7v121.5c0,37.7-29.5,60.9-65.7,60.9c-34.8,0-60.9-21.5-63.4-51.8l36.7,0.2c1.5,12.9,12.9,18.5,27.9,18.5
		c14.2,0,27.4-7.6,27.4-27.3v-15.5c-9.4,6.1-21.4,9.6-34.8,9.6c-33.6,0-60.6-27.1-60.6-58.2c0-36.2,27-60.5,60.6-60.5
		c13.5,0,25.4,3.6,34.8,9.6v-6.6L443.9,117.7z M407,189.2v-29.5c-7.5-10.8-17.9-14.4-28.2-14.4c-18.1,0-30.7,12-30.7,30.3
		c0,13.4,12.6,28.1,30.7,28.1C389.1,203.6,399.5,199.9,407,189.2z"/>
	<path d="M590.8,176.8c0,37.4-27.8,64.1-65.2,64.1c-37.6,0-65.5-26.7-65.5-64.1c0-37.1,27.8-64.3,65.5-64.3
		C563,112.5,590.8,139.7,590.8,176.8z M555.3,176.8c0-17.6-11.6-31.8-29.6-31.8c-18.2,0-29.8,14.2-29.8,31.8
		c0,18.1,11.6,31.6,29.8,31.6C543.6,208.3,555.3,194.9,555.3,176.8z"/>
	<path d="M819.6,117.9v120.7l-36.1,0.2v-6.9c-9.4,6.1-21.4,9.8-34.8,9.8c-33.6,0-60.6-28.3-60.6-63.3c0-35.1,27-63.5,60.6-63.5
		c13.5,0,25.4,3.8,34.8,9.8V118L819.6,117.9z M783.5,196.9v-37c-7.6-10.7-18.2-13.7-28.8-13.7c-18.5,0-31.3,14.7-31.3,32.3
		c0,17.4,12.8,32.1,31.3,32.1C765.3,210.6,775.9,207.7,783.5,196.9z"/>
	<path d="M968.2,173.2v65.6h-35.5v-61.3c0-19.7-9.9-30.1-27.5-30.1c-9.2,0-19.3,5.3-28,15.4v76h-36.3V118.1h36.3v9.2
		c9.9-7.9,21.4-12.1,35.1-12.1C944.7,115.1,968.2,137.8,968.2,173.2z"/>
	<g id="lINT7W_1_">
		<g>
			<polygon points="239.8,238.6 202.3,238.6 177.8,148.4 125.3,238.6 83.3,238.6 164.4,99 151.4,50.4 42,238.7 0,238.7 138.7,0 
				175.4,0 191.5,59.3 229.5,59.3 203.6,104 			"/>
		</g>
	</g>
	<path d="M1115,59.2v179.5h-36.8v-6.9c-9.4,6.1-21.4,9.8-34.8,9.8c-33.6,0-60.6-28.3-60.6-63.5c0-34.9,27-63.3,60.6-63.3
		c13.5,0,25.4,3.8,34.8,9.8V59.1L1115,59.2L1115,59.2z M1078.2,197v-37.3c-7.7-10.8-18.4-13.8-29-13.8c-18.6,0-31.5,14.8-31.5,32.3
		c0,17.8,12.9,32.6,31.5,32.6C1059.7,210.9,1070.4,207.9,1078.2,197z"/>
	<path d="M681.5,148.5c-8,1-26.8,1.9-37.8,17v73.3h-36.3V118.3h36.3v9.1c8.3-7.1,20.8-11.2,37.8-9.5"/>
</g>
</svg>
